inDegrees=no
num_controls=7
num_derivatives=13
num_iterations=89
num_multipliers=7
num_parameters=0
num_slacks=7
num_states=26
objective=0.445800
objective_accelerations=0.056415
objective_balance=0.003201
objective_effort=0.022452
objective_height=0.358184
objective_ligament=0.005548
solver_duration=1216.148575
status=Solve_Succeeded
success=true
DataType=double
version=3
OpenSimVersion=4.5
endheader
time	/jointset/ground_pelvis/pelvis_tilt/value	/jointset/ground_pelvis/pelvis_tx/value	/jointset/ground_pelvis/pelvis_ty/value	/jointset/hip_l/hip_flexion_l/value	/jointset/hip_l/hip_adduction_l/value	/jointset/hip_l/hip_rotation_l/value	/jointset/back/lumbar_extension/value	/jointset/patellofemoral_l/patellar_flexion_l/value	/jointset/knee_l/knee_flexion_l/value	/jointset/knee_l/knee_adduction_l/value	/jointset/knee_l/knee_rotation_l/value	/jointset/ankle_l/ankle_angle_l/value	/jointset/subtalar_l/subtalar_angle_l/value	/jointset/ground_pelvis/pelvis_tilt/speed	/jointset/ground_pelvis/pelvis_tx/speed	/jointset/ground_pelvis/pelvis_ty/speed	/jointset/hip_l/hip_flexion_l/speed	/jointset/hip_l/hip_adduction_l/speed	/jointset/hip_l/hip_rotation_l/speed	/jointset/back/lumbar_extension/speed	/jointset/patellofemoral_l/patellar_flexion_l/speed	/jointset/knee_l/knee_flexion_l/speed	/jointset/knee_l/knee_adduction_l/speed	/jointset/knee_l/knee_rotation_l/speed	/jointset/ankle_l/ankle_angle_l/speed	/jointset/subtalar_l/subtalar_angle_l/speed	/forceset/tau_hip_flexion_l	/forceset/tau_hip_adduction_l	/forceset/tau_hip_rotation_l	/forceset/tau_knee_flexion_l	/forceset/tau_ankle_angle_l	/forceset/tau_subtalar_angle_l	/forceset/tau_lumbar_extension	lambda_cid13_p0	lambda_cid13_p1	lambda_cid13_p2	lambda_cid13_p3	lambda_cid13_p4	lambda_cid13_p5	lambda_cid14_p0	/jointset/ground_pelvis/pelvis_tilt/accel	/jointset/ground_pelvis/pelvis_tx/accel	/jointset/ground_pelvis/pelvis_ty/accel	/jointset/hip_l/hip_flexion_l/accel	/jointset/hip_l/hip_adduction_l/accel	/jointset/hip_l/hip_rotation_l/accel	/jointset/back/lumbar_extension/accel	/jointset/patellofemoral_l/patellar_flexion_l/accel	/jointset/knee_l/knee_flexion_l/accel	/jointset/knee_l/knee_adduction_l/accel	/jointset/knee_l/knee_rotation_l/accel	/jointset/ankle_l/ankle_angle_l/accel	/jointset/subtalar_l/subtalar_angle_l/accel	gamma_cid13_p0	gamma_cid13_p1	gamma_cid13_p2	gamma_cid13_p3	gamma_cid13_p4	gamma_cid13_p5	gamma_cid14_p0
1.5	-0.3552874680163717	-0.01410803780387944	0.764868764824593	1.078980908679665	-0.4368127360967335	-0.2114834514163181	-0.2249778859393765	0.8057748926277549	0.8057748926277534	-0.1340534432431253	-0.1455984769108376	0.1434681678384365	-0.01288840168564131	0.6430838133056326	0.2562998264704491	0.5202372532606316	-2.386970566261795	0.2138551952594017	-0.7201645421868069	0.3182715960539705	-2.013537252639845	-2.013537252639803	-0.1220281389461661	0.1370953259434726	-0.4346468000030399	0.02150811021390331	-0.1718465801383037	0.04816492053507125	-0.007860385708666857	-0.1998720436141767	0.03317281884931114	0.02978596504857286	0.166797148750674	-21.77134552668689	-11.80147965068362	4.603841688864086	-5.219222322906744	-521.4607229682886	-49.00398093069514	-24.91435115472683	0.6502337326580007	0.6506457247312613	-0.4989441243676511	-1.273573083530619	0.7224083657267303	-0.198365879970209	1.48236449770524	-1.363548919260335	-1.363548919260304	0.1480482952593312	0.2237960037137705	-0.5398881610673371	0.5119986833045315	5.318221354210181e-07	4.364793749193883e-07	-3.174409257468973e-06	-1.335242693938742e-07	7.562924437194762e-07	7.438941218991222e-08	4.87847148654165e-07
1.51	-0.3488241850127622	-0.01151267925482078	0.7700451601723945	1.055049093460669	-0.4346396434381631	-0.218693712733072	-0.2217223552331283	0.7855736995581836	0.7855736995581336	-0.1352695564868118	-0.1442177730555209	0.1390950493516238	-0.01264954580101699	0.6494742510418877	0.2627454799585921	0.5149312852332241	-2.399064054946128	0.2207350075869577	-0.7217477675782886	0.3327987313632204	-2.026419709389864	-2.026419709389795	-0.1212284172223228	0.1390543941716689	-0.4398933226365411	0.02626600265446239	-0.1657772170869887	0.04676785297530834	-0.007539442142916832	-0.1975043876058115	0.03415648589553499	0.02921465540123555	0.1618860429386872	-21.25118093229775	-11.67377697471223	4.61699519554483	-5.349335915353851	-517.5963442314575	-49.3983600411356	-25.82633853658179	0.618685737969921	0.6376012197942376	-0.562888874357562	-1.127947784958909	0.6665478585011818	-0.1169433312984982	1.43251597265742	-1.208427123012601	-1.208427123008678	0.04102547955876271	0.1829682308920391	-0.5044527894477702	0.4580832975732536	4.528989555686529e-07	1.067199548823179e-06	-2.102578148601055e-06	7.527066534430295e-08	6.331003116213283e-07	2.125365165530923e-07	4.326824623137555e-07
1.52	-0.3422999502430201	-0.008853648959092993	0.775165202693436	1.031006201150013	-0.4323985966178718	-0.2259155347962521	-0.2183226275887637	0.7652521153070823	0.7652521153069881	-0.1364786542395336	-0.1428172773182247	0.1346719819434846	-0.01236303123735879	0.6552741665325736	0.2690341758042728	0.5089666879086073	-2.409185984593428	0.2274460276037605	-0.7224766914722243	0.3471109836773743	-2.037615488945481	-2.037615488945387	-0.1206250407540024	0.1410537023406462	-0.4446365842682925	0.03103984602068811	-0.1597078540356801	0.04537078541554449	-0.007218498577113175	-0.1951367315974504	0.03514015294175808	0.02864334575389555	0.1569749371266942	-20.73378420472364	-11.54783599387566	4.632996589618368	-5.508870234847371	-513.7903178356042	-49.84228530380361	-26.73814389173586	0.5321292835441693	0.6192541962388032	-0.6306699838094934	-0.8792612761238402	0.6886499035760711	-0.02750558046098992	1.439387898686039	-1.026213480380019	-1.026213480380245	0.1087792441547503	0.2318439918699697	-0.4392359607173622	0.5151888684378619	4.173947280421509e-07	1.374978916859719e-06	-1.599249517439122e-06	1.737286177922709e-07	5.877888265640625e-07	3.074280023346551e-07	4.053059705545891e-07
1.53	-0.3357206311393321	-0.006132753650850924	0.7802223563990155	1.006872092059358	-0.430091272369906	-0.2331406416313881	-0.2147810599667713	0.744826984507681	0.744826984507693	-0.1376824504813023	-0.1413966056418545	0.1302037694531943	-0.01202879313205715	0.660492900039038	0.2750945733198307	0.5023576000568017	-2.417280075933558	0.2339922010309988	-0.7224532844239646	0.3611471968685825	-2.047114874626125	-2.047114874626005	-0.1201196191882023	0.1430583877160584	-0.4489382539399239	0.03580525850778795	-0.1540781298296872	0.04477431226958293	-0.006834013371066379	-0.1918095944297286	0.03471885229126302	0.02763898998704174	0.1522981329888703	-20.687216501867	-11.1373570674141	4.587611185752672	-5.072201066661528	-510.0445227100904	-49.78838896521627	-27.64972970609206	0.5022532339936225	0.5919146310201839	-0.6918671049611147	-0.7210887436495782	0.6336694404313494	0.03134990022156071	1.377436451446143	-0.8675133864481775	-0.8675133864441048	0.0237580765098395	0.1810716826160721	-0.4154438945200363	0.4568336695013882	4.28023137361878e-07	1.33963367866231e-06	-1.69995476883979e-06	1.54953526556893e-07	6.25225528987733e-07	3.5636039337325e-07	4.074544355379932e-07
1.54	-0.3290920231306222	-0.003352757947092078	0.7852102514422581	0.9826677209191614	-0.427719272712042	-0.2403626971854915	-0.2111007905284459	0.7243157173965598	0.7243157173966879	-0.1388807256146475	-0.1399566289373036	0.1256945779813605	-0.01164697765575349	0.6651319475373509	0.2808542549076278	0.4951149554411956	-2.423238394501363	0.2403811095835851	-0.721866435265622	0.3748513469441094	-2.054842751288434	-2.054842751288287	-0.1195208190737154	0.1449147079810423	-0.4528323805769154	0.04055532022110157	-0.1484484056237104	0.04417783912361417	-0.006449528164875032	-0.1884824572620218	0.03429755164076474	0.02663463422017558	0.147621328851034	-20.64282367139194	-10.73145757509455	4.548622788648438	-4.675470666351965	-506.3450606358684	-49.78575459519266	-28.56174282305207	0.416192081913859	0.5591110106866487	-0.7573813365696118	-0.4521067216588535	0.6571969286456586	0.08518284155559554	1.372975275549751	-0.6719116767130986	-0.6719116767130973	0.1274549538921089	0.2021709697843173	-0.3577273537893478	0.5121187136806236	4.276485178271589e-07	1.425690940582823e-06	-1.655306214063315e-06	1.710552833102425e-07	6.428685759823322e-07	4.087852701166208e-07	4.07212311714573e-07
1.55	-0.322419944274619	-0.0005166415701730274	0.7901226565965561	0.9584142684191386	-0.4252842723986307	-0.2475767547956461	-0.2072854086919499	0.7037361117769354	0.7037361117771538	-0.1400723082555992	-0.1384993497640291	0.1211486447340266	-0.01121774072038609	0.66917473825928	0.286320281511239	0.4872682395766419	-2.427092713427042	0.2465821454529076	-0.720830404885619	0.3881536168797548	-2.06077084451146	-2.060770844511475	-0.118802291787287	0.1465333831574814	-0.4562685639864067	0.04528828580470306	-0.1424116269155478	0.04258155665375793	-0.006131267238818225	-0.1861011855571249	0.0348695651838011	0.02581523159024581	0.1426412900225506	-20.28997583886679	-10.46596342276036	4.538953397628796	-4.529874361739541	-502.8551972347469	-50.11151430409009	-29.47542716816185	0.3819605925999773	0.5330893627195759	-0.812865120116141	-0.298176443527314	0.5959801272111337	0.1303861079475384	1.298142331254194	-0.50720943659575	-0.5072094366199835	0.04330082665375445	0.1402520076320866	-0.323647848715479	0.4531889826770311	4.145964954818829e-07	1.651624996117457e-06	-1.443184795647965e-06	2.273412344853845e-07	6.377058895477851e-07	4.652340977807111e-07	4.042158138311161e-07
1.56	-0.3157107099063454	0.002372683248286378	0.794953684910465	0.9341330563367563	-0.4227883770842996	-0.2547769375076538	-0.2033391462603616	0.6831064349667834	0.6831064349670871	-0.1412568557815658	-0.1370261765957715	0.1165709328497604	-0.0107413134287873	0.6725630499919151	0.2914959432156988	0.478839587363371	-2.428790310972915	0.2525601097676528	-0.7190914556366195	0.4010274659626922	-2.064856989394419	-2.064856989394595	-0.1181137960754354	0.148093506976257	-0.459188107963356	0.04999339146738967	-0.1363748482073831	0.0409852741839067	-0.005813006312810112	-0.1837199138522234	0.03544157872683901	0.02499582896032316	0.1376612511940661	-19.93842645043843	-10.20329153073241	4.53321836449427	-4.419551967099608	-499.3989858026775	-50.4823769232943	-30.38734908111216	0.2852962840550537	0.5010380308563872	-0.8737686063130191	-0.02076244569736871	0.6125826177301982	0.2257666153548991	1.287291105008125	-0.3035220086995019	-0.3035220086995016	0.1214486389767478	0.1904606982516356	-0.2543994672808851	0.5065467294976547	3.869742347398274e-07	1.840142608819778e-06	-1.207076814032825e-06	2.862167216859147e-07	6.020414696124144e-07	5.027099440958781e-07	3.936034458143354e-07
1.57	-0.3089709662844838	0.005312198088861909	0.7996975583023669	0.9098459878200301	-0.4202337779993839	-0.2619571130868332	-0.1992664232835552	0.6624454742480911	0.662445474248373	-0.1424339058160356	-0.1355383452489729	0.1119667138661574	-0.01021783505702419	0.6752732018850423	0.2963456037881217	0.4698454327235273	-2.428249119086824	0.2583151450381297	-0.7168393794082047	0.4134194103242272	-2.067014385237722	-2.067014385237672	-0.1172990790439722	0.1494520250546406	-0.4615724684822092	0.05468923460454716	-0.130336885978481	0.03946806314319232	-0.005521403242733496	-0.1813310140367777	0.03595162960507006	0.02389308221275532	0.1326341792816854	-19.62815880153837	-9.803746437726964	4.498135223133877	-4.149757748250255	-496.1044173731474	-50.61454771579016	-31.28198801582333	0.2469856981800748	0.467793721934588	-0.9255904840757682	0.147687511581929	0.5501156193973074	0.2408953395273365	1.200488240547505	-0.1238053821844797	-0.1238053821505289	0.06135997867867488	0.1052275010688838	-0.2179008946825279	0.4489086623796713	3.411391760017977e-07	1.981889667981708e-06	-9.409856284179494e-07	3.483291289181803e-07	5.282498828010146e-07	5.164695637248913e-07	3.734712401309e-07
1.58	-0.302207498932446	0.008298382265461545	0.8043488198296191	0.8855755567233269	-0.4176229982342259	-0.2691115744611386	-0.1950727124353698	0.641772548168958	0.6417725481692211	-0.1436028333315006	-0.1340375926937036	0.1073411619672668	-0.009647837142578582	0.6773077960277155	0.3008298104205202	0.4603172144334501	-2.425462826967946	0.2637962458162414	-0.7139486146620866	0.4252250402386166	-2.067250061482579	-2.067250061482302	-0.1164892922746054	0.1506777486705123	-0.463454691020862	0.05929730000389991	-0.1242989237495784	0.0379508521024812	-0.005229800172655993	-0.1789421142213325	0.03646168048330162	0.02279033546519178	0.1276071073693031	-19.32587447931517	-9.405973935902477	4.466956783077768	-3.887685909742375	-492.9329162162242	-50.79915898792637	-32.15347973626832	0.1501847339642229	0.4279472428515197	-0.980581336359715	0.4282576008601245	0.5577957192571479	0.3535043188955835	1.170028215578971	0.08082191098967813	0.08082191098967817	0.120462586557452	0.1639018057492805	-0.1539718712407866	0.4889911819367156	2.998428985259152e-07	2.098270140505322e-06	-7.127271948739277e-07	3.970646350008428e-07	4.675293700213647e-07	5.249396856171253e-07	3.542491401834368e-07
1.59	-0.2954271901765531	0.01132750023157827	0.8089022093830104	0.8613444685059463	-0.4149587097959758	-0.2762344579277843	-0.1907638960004274	0.6211071054903519	0.6211071054903822	-0.1447631653709212	-0.1325255689037528	0.1026994032092946	-0.009032029667067771	0.6786353124839758	0.3049240803236054	0.4502808374119445	-2.420366656934013	0.2690113074596525	-0.7105239493786752	0.436429597224044	-2.06550362171361	-2.065503621713615	-0.1155750193060447	0.1517045026289179	-0.4648092049818415	0.06384860821386827	-0.1183227988941016	0.03627729443888779	-0.004975709317290623	-0.1765540247911167	0.03692014906047983	0.02162522501409254	0.122612044420951	-19.05662349914238	-8.975274693679163	4.430461664952356	-3.554977550898035	-489.9688783583642	-50.9542640906295	-32.99631810625109	0.1062050164922404	0.3898006663738672	-1.027064923349001	0.6084893552526143	0.4956057553143214	0.3528543229462567	1.079372011121487	0.2717177800717716	0.2717177800296434	0.07757572271279427	0.06853662841185618	-0.1129381725434701	0.4355578302103142	2.647063956200894e-07	2.180224531162652e-06	-5.358132105689189e-07	4.276457752376166e-07	4.24548171999089e-07	5.262312034380166e-07	3.362621837347929e-07
